<svg version="1.1" id="Layer_1" xmlns="http://www.w3.org/2000/svg" xmlns:xlink="http://www.w3.org/1999/xlink" x="0px" y="0px" viewBox="0 0 1200 1200" enable-background="new 0 0 1200 1200" xml:space="preserve">
<g>
	<path fill="#202020" d="M167.656,115.661c5.119,307.832,10.256,616.732,15.388,925.343h121.624&#10;&#9;&#9;c0.69-8.966,1.519-15.313,1.618-21.671c1.727-110.483,1.525-221.036,5.649-331.427c2.882-77.13,11.619-154.044,17.835-231.047&#10;&#9;&#9;c1.19-14.736,8.136-26.483,23.507-27.644c27.755-2.096,55.752-3.653,83.493-2.291c16.356,0.803,19.585,16.207,19.251,30.164&#10;&#9;&#9;c-0.598,25.023-2.766,50.012-3.222,75.035c-1.718,94.269-2.892,188.548-4.506,282.819c-1.071,62.559-4.566,119.221-6.132,181.77&#10;&#9;&#9;c-0.271,10.828-0.124,27.505-1.484,39.666h90.915c0-36.725-0.372-71.732,0.068-106.728c1.463-116.381,2.546-232.773,5.067-349.132&#10;&#9;&#9;c2.09-96.473,6.227-192.901,8.931-289.362c0.455-16.218,13.047-29.46,29.228-30.651c26.89-1.978,53.618-6.242,80.513-8.05&#10;&#9;&#9;c17.473-1.175,30.888,12.378,29.671,29.848c-3.941,56.54-8.776,113.017-12.469,169.571c-4.221,64.652-8.6,129.32-11.123,194.051&#10;&#9;&#9;c-4.96,127.246-8.683,254.541-12.937,382.404h122.57c-1.855-32.386-4.598-61.509-5.016-90.665&#10;&#9;&#9;c-2.276-159.02-4.307-318.046-5.588-477.076c-0.24-29.767,7.376-34.162,37.448-32.169c10.794,0.715,21.65,1.034,32.451,0.424&#10;&#9;&#9;c36.595-2.066,49.148,5.047,51.063,37.346c3.27,55.142,6.835,110.318,7.929,165.526c2.422,122.228,3.379,244.485,4.991,366.73&#10;&#9;&#9;c0.075,5.724,0.708,11.441,1.022,16.248l173.224-0.001c-11.196-8.146-25.292-12.898-35.787-21.863&#10;&#9;&#9;c-2.5-2.136-3.897-5.564-5.064-9.261c-1.678-5.315,0.918-11.035,5.965-13.4c3.15-1.476,6.114-2.487,8.325-1.606&#10;&#9;&#9;c32.634,13.004,65.127,26.581,96.479,42.337c22.152,10.016,6.076,22.107,1.908,25.81c-32.946,29.27-67.34,56.955-102.154,84.013&#10;&#9;&#9;c-3.879,3.015-17.245,1.222-19.04-2.155c-2.955-5.558-2.938-16.762,0.899-21.15c15.349-17.551,32.651-33.393,51.476-52.098&#10;&#9;&#9;c-298.286,10.515-593.414,20.919-890.293,31.384c-1.976,11.781-3.608,27.017-7.486,41.659c-0.17,0.642-0.426,1.261-0.753,1.861&#10;&#9;&#9;c-4.579,8.416-17.078,8.11-22.558,0.251c-0.982-1.408-1.642-2.843-1.769-4.324c-1.231-14.29,0.663-28.85,1.37-44.581&#10;&#9;&#9;c-23.84-1.718-46.449-3.16-69.017-5.084c-7.242-0.617-15.315-1.709-22.027-4.262c-5.102-1.888-8.605-3.764-9.107-9.674&#10;&#9;&#9;c0-5.318,8.535-8.107,12.944-8.268c24.281-0.89,48.608-0.503,72.919-0.659c4.323-0.028,8.642-0.558,15.312-1.016&#10;&#9;&#9;c-2.839-300.114-5.671-599.523-8.55-903.989c-5.703,7.32-9.351,10.976-11.797,15.31c-14.817,26.263-28.904,52.953-44.4,78.802&#10;&#9;&#9;c-0.36,0.601-0.803,1.152-1.314,1.663c-7.105,7.106-20.061,0.992-19.671-9.049c0.035-0.887,0.17-1.742,0.435-2.554&#10;&#9;&#9;c4.52-13.887,11.107-27.219,17.931-40.213c16.076-30.613,32.246-61.202,49.411-91.209c10.868-19,28.695-23.413,44.248-10.291&#10;&#9;&#9;c31.778,26.811,45.131,64.66,56.253,102.947c0.88,3.029-1.722,7.068-4.743,11.23c-3.384,4.661-9.666,6.264-14.844,3.74&#10;&#9;&#9;c-3.392-1.653-6.448-3.507-8.067-6.219c-7.492-12.542-12.244-26.686-18.733-39.872&#10;&#9;&#9;C180.679,139.382,173.274,126.232,167.656,115.661z M554.221,1034.511c12.599,0,64.446,0.554,64.446,0.554&#10;&#9;&#9;s7.278-194.767,11.039-279.341c5.133-115.429,11.019-230.825,16.946-346.217c2.132-41.509,5.317-82.963,8.24-127.795&#10;&#9;&#9;c-27.629,3.204-52.676,6.108-80.498,9.334C567.643,539.878,560.958,786.216,554.221,1034.511z M426.157,455.722&#10;&#9;&#9;c-16.747,0-31.291,0.595-45.763-0.17c-14.054-0.743-21.069,2.848-22.208,18.983c-4.658,65.954-12.381,131.72-15.894,197.72&#10;&#9;&#9;c-4.456,83.711-5.757,167.588-8.747,251.381c-1.351,37.87-3.496,75.713-5.289,113.74c29.633,0,56.463,0,85.093,0&#10;&#9;&#9;C417.617,843.535,421.85,651.294,426.157,455.722z M791.44,461.161c0,189.067,0,376.382,0,564.546&#10;&#9;&#9;c19.343-1.431,75.087-7.296,75.087-7.296s-6.215-281.711-8.904-413.492c-0.972-47.622-4.711-95.187-7.239-143.758&#10;&#9;&#9;C829.95,461.161,811.83,461.161,791.44,461.161z" style="fill: rgb(255, 218, 107);"/>
</g>
</svg>