<svg version="1.1" id="Layer_1" xmlns="http://www.w3.org/2000/svg" xmlns:xlink="http://www.w3.org/1999/xlink" x="0px" y="0px" viewBox="0 0 1200 1200" enable-background="new 0 0 1200 1200" xml:space="preserve">
<g>
	<g>
		<path fill="#333132" d="M515.362,467.5c-2.654,0-4.864-2.08-4.998-4.76c-0.137-2.762,1.992-5.112,4.754-5.249&#10;&#9;&#9;&#9;c17.648-0.877,66.355-5.034,79.608-13.612c15.174-9.823,18.3-15.64,18.33-15.699c1.095-2.537,4.004-3.619,6.547-2.53&#10;&#9;&#9;&#9;c2.54,1.099,3.671,4.128,2.572,6.667c-0.574,1.327-4.333,8.529-22.004,19.966c-17.909,11.594-77.789,14.874-84.558,15.21&#10;&#9;&#9;&#9;C515.528,467.497,515.443,467.5,515.362,467.5z" style="fill: rgb(255, 218, 107);"/>
	</g>
	<g>
		<path fill="#333132" d="M835.239,571.822c-0.267,0-0.538-0.02-0.809-0.065c-2.729-0.443-4.584-3.016-4.141-5.745&#10;&#9;&#9;&#9;c0.02-0.127,2.139-14.189-0.055-50.735c-2.122-35.261-16.246-62.889-18.307-65.84c-1.734-2.155-1.35-5.249,0.805-6.984&#10;&#9;&#9;&#9;c2.152-1.741,5.35-1.337,7.085,0.815c2.07,2.569,18.053,32.134,20.413,71.408c2.279,37.954,0.042,52.345-0.055,52.939&#10;&#9;&#9;&#9;C839.778,570.075,837.652,571.822,835.239,571.822z" style="fill: rgb(255, 218, 107);"/>
	</g>
	<g>
		<path fill="#333132" d="M864.589,527.162c-0.143,0-0.287-0.007-0.434-0.02c-2.755-0.235-4.799-2.66-4.561-5.415&#10;&#9;&#9;&#9;c3.029-35.395-15.992-66.055-16.184-66.358c-1.474-2.341-0.769-5.435,1.568-6.909c2.347-1.47,5.432-0.769,6.909,1.568&#10;&#9;&#9;&#9;c0.857,1.366,21,33.846,17.684,72.553C869.349,525.193,867.162,527.162,864.589,527.162z" style="fill: rgb(255, 218, 107);"/>
	</g>
	<g>
		<path fill="#333132" d="M856.334,681.485c-1.05,0-2.109-0.329-3.013-1.011c-2.207-1.666-2.647-4.806-0.981-7.013&#10;&#9;&#9;&#9;c1.229-1.633,30.429-40.05,55.107-47.631c22.503-6.919,194.337-52.854,212.126-57.604c5.979-5.97,40.399-45.11,3.717-123.049&#10;&#9;&#9;&#9;c-36.855-78.307-98.359-85.93-107.344-86.625c-14.782,7.016-145.953,68.787-184.762,70.088l-5.565,0.192&#10;&#9;&#9;&#9;c-36.275,1.245-58.171,2.018-98.711-16.387c-9.631-4.375-19.132-9.25-28.323-13.964c-30.807-15.81-59.903-30.768-92.467-27.133&#10;&#9;&#9;&#9;c-35.127,3.89-93.419,8.933-118.312,11.089c-6.178,0.535-10.052,0.867-10.619,0.932c-11.362,1.219-24.547,11.884-36.451,29.294&#10;&#9;&#9;&#9;c-1.448,2.621-16.263,29.487-28.792,53.108c-13.263,24.997-11.93,25.943-1.536,33.279c11.102,7.844,61.618,0.137,76.253-14.15&#10;&#9;&#9;&#9;c2.09-2.038,4.346-4.134,6.654-6.283c16.585-15.402,27.716-27.182,19.839-38.492c-10.205-14.652-10.528-20.462-9.879-23.556&#10;&#9;&#9;&#9;c0.395-1.884,1.431-3.466,2.85-4.333c2.351-1.448,5.438-0.711,6.886,1.65c0.975,1.588,0.959,3.511,0.117,5.037&#10;&#9;&#9;&#9;c0.179,1.268,1.311,5.523,8.242,15.477c13.462,19.327-5.777,37.197-21.238,51.556c-2.246,2.09-4.444,4.128-6.475,6.11&#10;&#9;&#9;&#9;c-15.976,15.594-71.878,27.273-89.028,15.167c-18.014-12.722-14.463-21.792-1.536-46.157&#10;&#9;&#9;&#9;c13.165-24.811,28.828-53.18,28.988-53.463c0.075-0.137,0.156-0.267,0.245-0.398c13.795-20.247,29.255-32.245,43.529-33.777&#10;&#9;&#9;&#9;c0.721-0.082,4.705-0.427,11.085-0.978c24.857-2.152,83.064-7.189,118.074-11.069c35.561-3.939,67.375,12.393,98.144,28.179&#10;&#9;&#9;&#9;c9.083,4.659,18.476,9.481,27.889,13.752c38.397,17.436,58.22,16.742,94.221,15.5l5.582-0.192&#10;&#9;&#9;&#9;c38.195-1.281,180.51-68.989,181.945-69.671c0.704-0.339,1.516-0.483,2.266-0.489c3.045,0.068,75.044,2.68,117.292,92.441&#10;&#9;&#9;&#9;c42.522,90.348-4.9,133.77-6.938,135.573c-0.584,0.515-1.275,0.89-2.028,1.089c-1.894,0.505-189.946,50.744-213,57.829&#10;&#9;&#9;&#9;c-21.58,6.632-49.769,43.718-50.053,44.09C859.35,680.797,857.85,681.485,856.334,681.485z M511.381,420.763&#10;&#9;&#9;&#9;c-0.003,0-0.003,0-0.003,0H511.381z M511.394,420.753L511.394,420.753z" style="fill: rgb(255, 218, 107);"/>
	</g>
	<g>
		<path fill="#333132" d="M747.2,805.082c-12.66,0-27.354-4.503-43.708-13.498c-2.426-1.333-3.309-4.379-1.976-6.801&#10;&#9;&#9;&#9;c1.337-2.429,4.388-3.306,6.801-1.976c19.083,10.498,45.28,19.598,61.706,3.329c14.238-14.088,5.673-35.176-4.584-53.946&#10;&#9;&#9;&#9;c-10.114-18.509-55.729-56.225-80.238-76.488l-0.551-0.456c-25.098-20.759-44.207-48.817-45.009-50.001&#10;&#9;&#9;&#9;c-1.285-1.901-1.115-4.431,0.411-6.143c1.526-1.708,4.023-2.168,6.055-1.102c0.313,0.163,8.001,4.196,34.902,19.764&#10;&#9;&#9;&#9;c20.808,12.041,58.198,45.202,85.5,69.413c8.682,7.701,16.181,14.352,21.303,18.666l3.342,2.83&#10;&#9;&#9;&#9;c23.713,20.12,43.161,34.397,59.577,20.592c18.64-15.679,10-30.53,9.911-30.677c-0.215-0.359-0.388-0.743-0.509-1.144&#10;&#9;&#9;&#9;c-17.185-57.06-84.541-105.492-133.724-140.858c-4.229-3.042-8.327-5.986-12.252-8.836&#10;&#9;&#9;&#9;c-49.163-35.698-150.521-83.116-151.539-83.592c-2.507-1.17-3.593-4.147-2.422-6.654c1.17-2.51,4.144-3.599,6.654-2.422&#10;&#9;&#9;&#9;c1.027,0.479,103.259,48.309,153.191,84.564c3.912,2.84,7.998,5.777,12.213,8.81c50.193,36.089,118.876,85.477,137.297,145.539&#10;&#9;&#9;&#9;c4.444,8.004,7.232,26.445-12.373,42.936c-24.205,20.348-52.12-3.326-72.504-20.619l-3.319-2.807&#10;&#9;&#9;&#9;c-5.217-4.398-12.761-11.089-21.492-18.835c-25.46-22.578-63.936-56.701-83.87-68.239c-5.125-2.964-9.553-5.51-13.361-7.691&#10;&#9;&#9;&#9;c7.544,9.005,17.449,19.728,28.401,28.786l0.551,0.456c34.645,28.646,72.458,60.767,82.644,79.403&#10;&#9;&#9;&#9;c11.34,20.755,21.913,46.998,2.84,65.872C769.103,801.14,759.041,805.082,747.2,805.082z" style="fill: rgb(255, 218, 107);"/>
	</g>
	<g>
		<path fill="#333132" d="M716.239,651.405c-1.483,0-2.954-0.655-3.942-1.914c-1.708-2.175-1.33-5.321,0.844-7.033l30.915-24.299&#10;&#9;&#9;&#9;c2.175-1.705,5.321-1.333,7.033,0.844c1.708,2.175,1.33,5.321-0.844,7.033l-30.915,24.299&#10;&#9;&#9;&#9;C718.414,651.056,717.322,651.405,716.239,651.405z" style="fill: rgb(255, 218, 107);"/>
	</g>
	<g>
		<path fill="#333132" d="M731.697,668.3c-1.806,0-3.551-0.981-4.444-2.693c-1.278-2.452-0.326-5.477,2.126-6.755l22.842-11.907&#10;&#9;&#9;&#9;c2.455-1.275,5.477-0.326,6.755,2.126c1.278,2.452,0.326,5.477-2.126,6.755l-22.842,11.907&#10;&#9;&#9;&#9;C733.268,668.117,732.476,668.3,731.697,668.3z" style="fill: rgb(255, 218, 107);"/>
	</g>
	<g>
		<path fill="#333132" d="M368.117,720.831c-0.306,0-0.613-0.026-0.923-0.085c-32.816-6.113-63.013-32.864-91.127-59.743&#10;&#9;&#9;&#9;c-27.817-26.585-93.318-56.274-153.723-81.809c-32.679-13.817-103.631-58.576-56.838-175.492&#10;&#9;&#9;&#9;c13.782-34.433,33.125-56.639,57.497-66.003c30.22-11.617,56.711,1.092,57.823,1.637l141.004,73.032&#10;&#9;&#9;&#9;c0.209,0.104,23.644,11.825,51.064,6.808c29.545-5.399,60.15-6.785,60.457-6.801c2.781-0.098,5.099,2.021,5.22,4.786&#10;&#9;&#9;&#9;c0.124,2.762-2.018,5.099-4.783,5.223c-0.297,0.013-30.243,1.373-59.094,6.645c-30.863,5.644-56.382-7.209-57.451-7.76&#10;&#9;&#9;&#9;l-140.926-72.99c-0.134-0.062-23.778-11.271-49.864-1.174c-21.597,8.356-38.974,28.652-51.647,60.32&#10;&#9;&#9;&#9;c-43.5,108.684,21.483,149.876,51.439,162.542c61.243,25.891,127.757,56.091,156.742,83.798&#10;&#9;&#9;&#9;c27.025,25.832,55.932,51.524,86.041,57.135c2.719,0.505,4.512,3.12,4.007,5.839C372.584,719.148,370.481,720.831,368.117,720.831&#10;&#9;&#9;&#9;z" style="fill: rgb(255, 218, 107);"/>
	</g>
	<g>
		<path fill="#333132" d="M667.774,841.23c-14.46,0-23.318-6.739-23.85-7.156c-0.228-0.179-0.44-0.378-0.636-0.593&#10;&#9;&#9;&#9;c-34.361-38.123-86.794-96.008-90.42-99.226c-2.051-1.823-2.289-4.985-0.489-7.055c1.803-2.07,4.897-2.338,6.99-0.564&#10;&#9;&#9;&#9;c4.428,3.756,75.758,82.833,91.01,99.754c2.184,1.51,15.969,9.996,36.695,0.072c8.17-3.909,13.299-10.348,14.825-18.623&#10;&#9;&#9;&#9;c2.338-12.647-3.899-28.603-16.272-41.645c-22.48-23.69-78.281-75.657-78.842-76.182c-2.025-1.884-2.139-5.054-0.254-7.075&#10;&#9;&#9;&#9;c1.884-2.031,5.06-2.139,7.075-0.254c0.564,0.522,56.593,52.704,79.286,76.619c14.76,15.552,21.812,34.377,18.858,50.356&#10;&#9;&#9;&#9;c-2.132,11.555-9.171,20.491-20.351,25.842C682.488,839.759,674.52,841.23,667.774,841.23z" style="fill: rgb(255, 218, 107);"/>
	</g>
	<g>
		<path fill="#333132" d="M677.682,748.391c-1.177,0-2.364-0.414-3.316-1.258c-2.07-1.832-2.263-4.995-0.43-7.068l22.63-25.578&#10;&#9;&#9;&#9;c1.826-2.067,4.992-2.269,7.068-0.43c2.07,1.832,2.263,4.995,0.43,7.068l-22.63,25.578&#10;&#9;&#9;&#9;C680.447,747.82,679.068,748.391,677.682,748.391z" style="fill: rgb(255, 218, 107);"/>
	</g>
	<g>
		<path fill="#333132" d="M695.155,767.754c-1.164,0-2.334-0.404-3.283-1.229c-2.087-1.816-2.308-4.979-0.492-7.065l19.742-22.686&#10;&#9;&#9;&#9;c1.816-2.083,4.979-2.308,7.065-0.492c2.087,1.816,2.308,4.979,0.492,7.065l-19.741,22.686&#10;&#9;&#9;&#9;C697.945,767.17,696.553,767.754,695.155,767.754z" style="fill: rgb(255, 218, 107);"/>
	</g>
	<g>
		<path fill="#333132" d="M404.216,802.555c-4.261,0-8.624-1.369-13.028-4.095l-3.156-1.933&#10;&#9;&#9;&#9;c-17.665-10.775-50.549-30.827-31.916-63.336c4.206-7.333,8.232-15.154,12.125-22.721c12.81-24.899,23.898-46.444,38.893-46.444&#10;&#9;&#9;&#9;c0.189,0,0.375,0.003,0.564,0.01c16.882,0.603,37.762,3.345,49.496,19.35c11.943,16.289,2.784,39.343,2.39,40.314&#10;&#9;&#9;&#9;c-1.037,2.563-3.958,3.798-6.524,2.755c-2.563-1.04-3.795-3.965-2.755-6.524c0.072-0.179,7.427-18.871-1.19-30.625&#10;&#9;&#9;&#9;c-9.188-12.533-27.152-14.74-41.775-15.262c-0.062-0.003-0.127-0.003-0.192-0.003c-8.898,0-20.103,21.779-30.002,41.009&#10;&#9;&#9;&#9;c-3.942,7.668-8.021,15.594-12.34,23.122c-12.732,22.21,6.188,36.232,28.44,49.802l3.215,1.969&#10;&#9;&#9;&#9;c3.844,2.383,7.248,3.097,10.423,2.227c5.608-1.562,8.884-7.694,8.917-7.756c1.262-2.458,4.274-3.433,6.742-2.171&#10;&#9;&#9;&#9;c2.462,1.262,3.433,4.281,2.171,6.742c-0.212,0.411-5.265,10.084-15.148,12.833C407.806,802.311,406.019,802.555,404.216,802.555z&#10;&#9;&#9;&#9;" style="fill: rgb(255, 218, 107);"/>
	</g>
	<g>
		<path fill="#333132" d="M462.012,834.595c-7.173,0-14.913-1.946-22.523-7.186c-30.846-21.232-21.724-48.312-10.332-69.534&#10;&#9;&#9;&#9;c1.868-3.482,3.821-7.209,5.843-11.069c15.324-29.249,32.692-62.403,51.504-65.406c19.856-3.159,40.233,2.543,53.216,14.906&#10;&#9;&#9;&#9;c13.557,12.898,0.287,44.882-1.272,48.485c-1.102,2.54-4.059,3.707-6.579,2.612c-2.54-1.095-3.71-4.043-2.615-6.583&#10;&#9;&#9;&#9;c4.053-9.406,10.257-30.892,3.56-37.259c-10.606-10.101-28.157-14.916-44.732-12.269c-13.85,2.211-32.121,37.087-44.211,60.164&#10;&#9;&#9;&#9;c-2.038,3.89-4.007,7.649-5.891,11.157c-14.554,27.113-12.539,42.968,7.189,56.548c19.663,13.534,38.665-2.494,38.854-2.657&#10;&#9;&#9;&#9;c2.096-1.809,5.262-1.571,7.062,0.522c1.806,2.096,1.572,5.256-0.522,7.062C485.125,828.775,474.415,834.595,462.012,834.595z" style="fill: rgb(255, 218, 107);"/>
	</g>
	<g>
		<path fill="#333132" d="M618.425,867.179c-15.037,0-33.262-9.537-36.017-11.027c-0.421-0.228-0.805-0.515-1.144-0.851&#10;&#9;&#9;&#9;l-13.328-13.234c-7.176,4.574-30.934,18.16-51.214,11.959c-25.385-7.743-36.18-31.456-28.17-61.878&#10;&#9;&#9;&#9;c7.968-30.263,36.787-57.676,56.157-53.34c11.571,2.602,20.628,14.098,24.864,23.152c4.085,8.721,4.832,16.83,2.057,22.239&#10;&#9;&#9;&#9;c-3.567,6.948-8.079,27.384-10.075,37.416l26.246,26.063c12.83,6.788,32.884,13.319,38.557,7.042&#10;&#9;&#9;&#9;c10.224-11.307,15.907-26.207,15.963-26.354c0.975-2.589,3.864-3.899,6.449-2.925c2.589,0.972,3.899,3.854,2.928,6.443&#10;&#9;&#9;&#9;c-0.254,0.681-6.374,16.794-17.912,29.552C629.983,865.643,624.46,867.179,618.425,867.179z M540.437,748.365&#10;&#9;&#9;&#9;c-12.181,0-35.199,19.738-42.202,46.333c-6.592,25.049,1.408,43.65,21.408,49.75c14.704,4.48,33.223-5.028,40.973-9.647&#10;&#9;&#9;&#9;l-8.014-7.962c-1.18-1.17-1.702-2.85-1.392-4.483c0.623-3.293,6.231-32.447,11.509-42.727c1.056-2.064,0.782-7.013-2.217-13.423&#10;&#9;&#9;&#9;c-4.248-9.077-11.48-16.162-17.991-17.622C541.865,748.436,541.167,748.365,540.437,748.365z" style="fill: rgb(255, 218, 107);"/>
	</g>
	<g>
		<path fill="#333132" d="M305.146,737.53c-6.279,0-11.816-0.994-15.845-3.485c-19.295-11.93-26.106-33.937-21.544-48.322&#10;&#9;&#9;&#9;c4.688-14.786,21.747-21.134,22.467-21.398c2.618-0.949,5.474,0.398,6.42,3c0.942,2.595-0.395,5.461-2.987,6.41l0,0&#10;&#9;&#9;&#9;c-0.13,0.049-13.169,4.969-16.354,15.014c-3.329,10.495,2.328,27.54,17.267,36.78c10.824,6.687,46.747-4.017,66.837-12.35&#10;&#9;&#9;&#9;c2.563-1.063,5.484,0.15,6.547,2.706c1.06,2.556-0.153,5.487-2.706,6.547C360.693,724.319,328.034,737.527,305.146,737.53z" style="fill: rgb(255, 218, 107);"/>
	</g>
</g>
</svg>